<svg width="71" height="41" viewBox="0 0 71 41" fill="none" xmlns="http://www.w3.org/2000/svg">
<path d="M70.5273 0H0.973389V40.58H70.5273V0Z" fill="white"/>
<path d="M47.5431 14.6735L70.5274 1.80309V0H68.9523L42.7349 14.6735H47.5431Z" fill="#BD0034"/>
<path d="M46.4652 26.7148L70.5272 40.1862V37.492L51.2735 26.7148H46.4652Z" fill="#BD0034"/>
<path d="M0.973389 3.08808L21.5535 14.6735H26.3825L0.973389 0.393799V3.08808Z" fill="#BD0034"/>
<path d="M25.2841 26.7148L0.973389 40.3313V40.58H5.36714L30.0923 26.7148H25.2841Z" fill="#BD0034"/>
<path d="M65.7812 0H41.4083V13.6372L65.7812 0Z" fill="#1A237B"/>
<path d="M30.6727 0H6.40344L30.6727 13.6372V0Z" fill="#1A237B"/>
<path d="M70.5273 14.6734V5.3678L54.0093 14.6734H70.5273Z" fill="#1A237B"/>
<path d="M70.5273 35.9168V26.7148H54.0093L70.5273 35.9168Z" fill="#1A237B"/>
<path d="M7.79211 40.58H30.6728V27.7511L7.79211 40.58Z" fill="#1A237B"/>
<path d="M41.4083 40.58H64.3719L41.4083 27.7511V40.58Z" fill="#1A237B"/>
<path d="M0.973389 26.7148V36.3521L18.0717 26.7148H0.973389Z" fill="#1A237B"/>
<path d="M0.973389 14.6735H18.0717L0.973389 5.03625V14.6735Z" fill="#1A237B"/>
<path d="M32.8073 0V17.0776H0.973389V24.3107H32.8073V40.58H39.2736V24.3107H70.5273V17.0776H39.2736V0H32.8073Z" fill="#BD0034"/>
</svg>
